<svg width="136" height="57" viewBox="0 0 136 57" fill="none" xmlns="http://www.w3.org/2000/svg">
<path d="M23.8906 38.0142C23.8906 38.8162 23.7865 39.5402 23.5781 40.186C23.3802 40.8215 23.1146 41.384 22.7813 41.8735C22.4479 42.3631 22.0573 42.7798 21.6094 43.1235C21.1615 43.4673 20.6979 43.7485 20.2188 43.9673C19.7396 44.186 19.25 44.3475 18.75 44.4517C18.2604 44.5558 17.7969 44.6079 17.3594 44.6079L1.6875 44.6079L1.6875 40.5454L17.3594 40.5454C18.1406 40.5454 18.7448 40.3162 19.1719 39.8579C19.6094 39.3996 19.8281 38.785 19.8281 38.0142C19.8281 37.6392 19.7708 37.2954 19.6563 36.9829C19.5417 36.6704 19.375 36.3996 19.1563 36.1704C18.9479 35.9412 18.6875 35.7642 18.375 35.6392C18.0729 35.5142 17.7344 35.4517 17.3594 35.4517L8.01563 35.4517C7.35938 35.4517 6.65104 35.3371 5.89063 35.1079C5.13021 34.8683 4.42188 34.4881 3.76563 33.9673C3.11979 33.4465 2.57813 32.7642 2.14063 31.9204C1.71354 31.0767 1.5 30.0454 1.5 28.8267C1.5 27.6079 1.71354 26.5819 2.14063 25.7485C2.57813 24.9048 3.11979 24.2225 3.76563 23.7017C4.42188 23.1704 5.13021 22.7902 5.89063 22.561C6.65104 22.3215 7.35938 22.2017 8.01563 22.2017L21.8438 22.2017L21.8438 26.2642L8.01563 26.2642C7.24479 26.2642 6.64063 26.4985 6.20313 26.9673C5.77604 27.436 5.5625 28.0558 5.5625 28.8267C5.5625 29.6079 5.77604 30.2277 6.20313 30.686C6.64063 31.134 7.24479 31.3579 8.01563 31.3579L17.3594 31.3579L17.3906 31.3579C17.8281 31.3683 18.2917 31.4308 18.7813 31.5454C19.2708 31.6496 19.7552 31.8162 20.2344 32.0454C20.724 32.2746 21.1875 32.5662 21.625 32.9204C22.0625 33.2642 22.4479 33.6808 22.7813 34.1704C23.125 34.66 23.3958 35.2225 23.5938 35.8579C23.7917 36.4933 23.8906 37.2121 23.8906 38.0142ZM45.6875 35.4517L32.8594 35.4517L32.8594 31.3579L45.6875 31.3579L45.6875 35.4517ZM47.5156 44.6079L32.8594 44.6079C32.2969 44.6079 31.6823 44.509 31.0156 44.311C30.349 44.1131 29.7292 43.7902 29.1563 43.3423C28.5938 42.884 28.1198 42.2954 27.7344 41.5767C27.3594 40.8475 27.1719 39.9569 27.1719 38.9048L27.1719 24.2485C27.1719 23.9673 27.224 23.7017 27.3281 23.4517C27.4323 23.2017 27.5729 22.9829 27.75 22.7954C27.9375 22.6079 28.1563 22.4621 28.4063 22.3579C28.6563 22.2537 28.9271 22.2017 29.2188 22.2017L47.5156 22.2017L47.5156 26.2642L31.2344 26.2642L31.2344 38.9048C31.2344 39.436 31.375 39.8423 31.6563 40.1235C31.9375 40.4048 32.349 40.5454 32.8906 40.5454L47.5156 40.5454L47.5156 44.6079ZM73.875 22.2017L63.2656 43.811C63.099 44.1444 62.849 44.41 62.5156 44.6079C62.1927 44.8162 61.8333 44.9204 61.4375 44.9204C61.0521 44.9204 60.6927 44.8162 60.3594 44.6079C60.0365 44.41 59.7865 44.1444 59.6094 43.811L49.0156 22.2017L53.5625 22.2017L61.4375 38.3423L69.3438 22.2017L73.875 22.2017ZM104.563 35.4517L91.7344 35.4517L91.7344 31.3579L104.563 31.3579L104.563 35.4517ZM106.391 44.6079L91.7344 44.6079C91.1719 44.6079 90.5573 44.509 89.8906 44.311C89.224 44.1131 88.6042 43.7902 88.0313 43.3423C87.4688 42.884 86.9948 42.2954 86.6094 41.5767C86.2344 40.8475 86.0469 39.9569 86.0469 38.9048L86.0469 24.2485C86.0469 23.9673 86.099 23.7017 86.2031 23.4517C86.3073 23.2017 86.4479 22.9829 86.625 22.7954C86.8125 22.6079 87.0313 22.4621 87.2813 22.3579C87.5313 22.2537 87.8021 22.2017 88.0938 22.2017L106.391 22.2017L106.391 26.2642L90.1094 26.2642L90.1094 38.9048C90.1094 39.436 90.25 39.8423 90.5313 40.1235C90.8125 40.4048 91.224 40.5454 91.7656 40.5454L106.391 40.5454L106.391 44.6079ZM132.719 42.8735C132.719 43.1652 132.661 43.436 132.547 43.686C132.443 43.936 132.297 44.1548 132.109 44.3423C131.932 44.5194 131.719 44.66 131.469 44.7642C131.219 44.8683 130.953 44.9204 130.672 44.9204C130.422 44.9204 130.167 44.8735 129.906 44.7798C129.656 44.686 129.432 44.535 129.234 44.3267L114.391 28.8267L114.391 44.6079L110.328 44.6079L110.328 23.936C110.328 23.5194 110.443 23.1444 110.672 22.811C110.911 22.4673 111.214 22.2121 111.578 22.0454C111.964 21.8892 112.359 21.8527 112.766 21.936C113.172 22.009 113.521 22.1965 113.813 22.4985L128.656 37.9829L128.656 22.2017L132.719 22.2017L132.719 42.8735Z" fill="black"/>
<path d="M87.4346 14.9375C87.7002 15.4219 87.833 15.9375 87.833 16.4844C87.833 17.0156 87.7002 17.5234 87.4346 18.0078L70.5361 47L63.4814 47L79.4658 19.4844L59.7314 19.4844L59.7314 13.3906L84.7861 13.3906C85.333 13.3906 85.8408 13.5313 86.3096 13.8125C86.7939 14.0781 87.1689 14.4531 87.4346 14.9375Z" fill="url(#paint0_linear_30_67)" fill-opacity="0.68"/>
<defs>
<linearGradient id="paint0_linear_30_67" x1="91.7072" y1="-8.90717" x2="88.7072" y2="65.5928" gradientUnits="userSpaceOnUse">
<stop stop-color="#FF8A00"/>
<stop offset="1" stop-color="#FF0000" stop-opacity="0.8"/>
</linearGradient>
</defs>
</svg>
