<svg width="57" height="61" viewBox="0 0 57 61" fill="none" xmlns="http://www.w3.org/2000/svg">
<g filter="url(#filter0_d_30_77)">
<mask id="path-1-outside-1_30_77" maskUnits="userSpaceOnUse" x="2" y="11" width="33" height="38" fill="black">
<rect fill="white" x="2" y="11" width="33" height="38"/>
<path d="M32.2734 14.9375C32.5391 15.4219 32.6719 15.9375 32.6719 16.4844C32.6719 17.0156 32.5391 17.5234 32.2734 18.0078L15.375 47H8.32031L24.3047 19.4844H4.57031V13.3906H29.625C30.1719 13.3906 30.6797 13.5312 31.1484 13.8125C31.6328 14.0781 32.0078 14.4531 32.2734 14.9375Z"/>
</mask>
<path d="M32.2734 14.9375C32.5391 15.4219 32.6719 15.9375 32.6719 16.4844C32.6719 17.0156 32.5391 17.5234 32.2734 18.0078L15.375 47H8.32031L24.3047 19.4844H4.57031V13.3906H29.625C30.1719 13.3906 30.6797 13.5312 31.1484 13.8125C31.6328 14.0781 32.0078 14.4531 32.2734 14.9375Z" fill="#FF9900"/>
<path d="M32.2734 18.0078L34.0014 19.0149L34.0145 18.9924L34.0271 18.9695L32.2734 18.0078ZM15.375 47V49H16.5242L17.1029 48.0071L15.375 47ZM8.32031 47L6.59094 45.9954L4.84549 49H8.32031V47ZM24.3047 19.4844L26.0341 20.489L27.7795 17.4844H24.3047V19.4844ZM4.57031 19.4844H2.57031V21.4844H4.57031V19.4844ZM4.57031 13.3906V11.3906H2.57031V13.3906H4.57031ZM31.1484 13.8125L30.1194 15.5275L30.1527 15.5475L30.1868 15.5661L31.1484 13.8125ZM30.5198 15.8992C30.6255 16.0919 30.6719 16.2772 30.6719 16.4844H34.6719C34.6719 15.5978 34.4526 14.7518 34.0271 13.9758L30.5198 15.8992ZM30.6719 16.4844C30.6719 16.6658 30.6305 16.8443 30.5198 17.0461L34.0271 18.9695C34.4476 18.2025 34.6719 17.3654 34.6719 16.4844H30.6719ZM30.5455 17.0007L13.6471 45.9929L17.1029 48.0071L34.0014 19.0149L30.5455 17.0007ZM15.375 45H8.32031V49H15.375V45ZM10.0497 48.0046L26.0341 20.489L22.5753 18.4797L6.59094 45.9954L10.0497 48.0046ZM24.3047 17.4844H4.57031V21.4844H24.3047V17.4844ZM6.57031 19.4844V13.3906H2.57031V19.4844H6.57031ZM4.57031 15.3906H29.625V11.3906H4.57031V15.3906ZM29.625 15.3906C29.8095 15.3906 29.9617 15.4328 30.1194 15.5275L32.1774 12.0975C31.3977 11.6297 30.5342 11.3906 29.625 11.3906V15.3906ZM30.1868 15.5661C30.3371 15.6486 30.4374 15.7488 30.5198 15.8992L34.0271 13.9758C33.5783 13.1574 32.9285 12.5077 32.1101 12.0589L30.1868 15.5661Z" fill="white" mask="url(#path-1-outside-1_30_77)"/>
</g>
<g filter="url(#filter1_d_30_77)">
<mask id="path-3-outside-2_30_77" maskUnits="userSpaceOnUse" x="22" y="12" width="33" height="38" fill="black">
<rect fill="white" x="22" y="12" width="33" height="38"/>
<path d="M24.7266 46.0625C24.4609 45.5781 24.3281 45.0625 24.3281 44.5156C24.3281 43.9844 24.4609 43.4766 24.7266 42.9922L41.625 14L48.6797 14L32.6953 41.5156L52.4297 41.5156V47.6094L27.375 47.6094C26.8281 47.6094 26.3203 47.4688 25.8516 47.1875C25.3672 46.9219 24.9922 46.5469 24.7266 46.0625Z"/>
</mask>
<path d="M24.7266 46.0625C24.4609 45.5781 24.3281 45.0625 24.3281 44.5156C24.3281 43.9844 24.4609 43.4766 24.7266 42.9922L41.625 14L48.6797 14L32.6953 41.5156L52.4297 41.5156V47.6094L27.375 47.6094C26.8281 47.6094 26.3203 47.4688 25.8516 47.1875C25.3672 46.9219 24.9922 46.5469 24.7266 46.0625Z" fill="#FF9900"/>
<path d="M24.7266 42.9922L22.9986 41.9851L22.9855 42.0076L22.9729 42.0305L24.7266 42.9922ZM41.625 14V12H40.4758L39.8971 12.9929L41.625 14ZM48.6797 14L50.4091 15.0046L52.1545 12H48.6797V14ZM32.6953 41.5156L30.9659 40.511L29.2205 43.5156L32.6953 43.5156V41.5156ZM52.4297 41.5156H54.4297V39.5156H52.4297V41.5156ZM52.4297 47.6094V49.6094H54.4297V47.6094H52.4297ZM25.8516 47.1875L26.8806 45.4725L26.8473 45.4525L26.8132 45.4339L25.8516 47.1875ZM26.4802 45.1008C26.3745 44.9081 26.3281 44.7228 26.3281 44.5156H22.3281C22.3281 45.4022 22.5474 46.2482 22.9729 47.0242L26.4802 45.1008ZM26.3281 44.5156C26.3281 44.3342 26.3695 44.1557 26.4802 43.9539L22.9729 42.0305C22.5524 42.7975 22.3281 43.6346 22.3281 44.5156H26.3281ZM26.4545 43.9993L43.3529 15.0071L39.8971 12.9929L22.9986 41.9851L26.4545 43.9993ZM41.625 16L48.6797 16V12L41.625 12V16ZM46.9503 12.9954L30.9659 40.511L34.4247 42.5203L50.4091 15.0046L46.9503 12.9954ZM32.6953 43.5156L52.4297 43.5156V39.5156L32.6953 39.5156V43.5156ZM50.4297 41.5156V47.6094H54.4297V41.5156H50.4297ZM52.4297 45.6094L27.375 45.6094L27.375 49.6094L52.4297 49.6094V45.6094ZM27.375 45.6094C27.1905 45.6094 27.0383 45.5672 26.8806 45.4725L24.8226 48.9025C25.6023 49.3703 26.4658 49.6094 27.375 49.6094L27.375 45.6094ZM26.8132 45.4339C26.6629 45.3514 26.5626 45.2512 26.4802 45.1008L22.9729 47.0242C23.4217 47.8426 24.0715 48.4923 24.8899 48.9411L26.8132 45.4339Z" fill="white" mask="url(#path-3-outside-2_30_77)"/>
</g>
<defs>
<filter id="filter0_d_30_77" x="0.570312" y="10.3906" width="36.1016" height="41.6094" filterUnits="userSpaceOnUse" color-interpolation-filters="sRGB">
<feFlood flood-opacity="0" result="BackgroundImageFix"/>
<feColorMatrix in="SourceAlpha" type="matrix" values="0 0 0 0 0 0 0 0 0 0 0 0 0 0 0 0 0 0 127 0" result="hardAlpha"/>
<feOffset dy="1"/>
<feGaussianBlur stdDeviation="2"/>
<feComposite in2="hardAlpha" operator="out"/>
<feColorMatrix type="matrix" values="0 0 0 0 1 0 0 0 0 0.540816 0 0 0 0 0.00177409 0 0 0 0.25 0"/>
<feBlend mode="normal" in2="BackgroundImageFix" result="effect1_dropShadow_30_77"/>
<feBlend mode="normal" in="SourceGraphic" in2="effect1_dropShadow_30_77" result="shape"/>
</filter>
<filter id="filter1_d_30_77" x="20.3281" y="11" width="36.1016" height="41.6094" filterUnits="userSpaceOnUse" color-interpolation-filters="sRGB">
<feFlood flood-opacity="0" result="BackgroundImageFix"/>
<feColorMatrix in="SourceAlpha" type="matrix" values="0 0 0 0 0 0 0 0 0 0 0 0 0 0 0 0 0 0 127 0" result="hardAlpha"/>
<feOffset dy="1"/>
<feGaussianBlur stdDeviation="2"/>
<feComposite in2="hardAlpha" operator="out"/>
<feColorMatrix type="matrix" values="0 0 0 0 1 0 0 0 0 0.540816 0 0 0 0 0.00177409 0 0 0 0.25 0"/>
<feBlend mode="normal" in2="BackgroundImageFix" result="effect1_dropShadow_30_77"/>
<feBlend mode="normal" in="SourceGraphic" in2="effect1_dropShadow_30_77" result="shape"/>
</filter>
</defs>
</svg>
